<?xml version="1.0"?>
<svg xmlns="http://www.w3.org/2000/svg" height="512px" viewBox="0 0 64 64" width="512px" class=""><g><path d="m45 5a2 2 0 0 0 -2-2h-22a2 2 0 0 0 -2 2v2h26z" fill="#9bc9ff" data-original="#9BC9FF" class="active-path" data-old_color="#9bc9ff" style="fill:#1F72D7"/><path d="m3 41v2h26v-2a2 2 0 0 0 -2-2h-22a2 2 0 0 0 -2 2z" fill="#9bc9ff" data-original="#9BC9FF" class="active-path" data-old_color="#9bc9ff" style="fill:#1F72D7"/><path d="m60 39h-22a2 2 0 0 0 -2 2v2h26v-2a2 2 0 0 0 -2-2z" fill="#9bc9ff" data-original="#9BC9FF" class="active-path" data-old_color="#9bc9ff" style="fill:#1F72D7"/><g fill="#1e81ce"><path d="m60 38h-9v-4a3 3 0 0 0 -3-3h-15v-5h10a3 3 0 0 0 3-3v-18a3 3 0 0 0 -3-3h-22a3 3 0 0 0 -3 3v18a3 3 0 0 0 3 3h10v5h-13a3 3 0 0 0 -3 3v4h-10a3 3 0 0 0 -3 3v18a3 3 0 0 0 3 3h22a3 3 0 0 0 3-3v-18a3 3 0 0 0 -3-3h-10v-4a1 1 0 0 1 1-1h30a1 1 0 0 1 1 1v4h-11a3 3 0 0 0 -3 3v18a3 3 0 0 0 3 3h22a3 3 0 0 0 3-3v-18a3 3 0 0 0 -3-3zm-39-34h22a1 1 0 0 1 1 1v1h-24v-1a1 1 0 0 1 1-1zm-1 19v-15h24v15a1 1 0 0 1 -1 1h-22a1 1 0 0 1 -1-1zm7 37h-22a1 1 0 0 1 -1-1v-15h24v15a1 1 0 0 1 -1 1zm1-19v1h-24v-1a1 1 0 0 1 1-1h22a1 1 0 0 1 1 1zm10-1h22a1 1 0 0 1 1 1v1h-24v-1a1 1 0 0 1 1-1zm22 20h-22a1 1 0 0 1 -1-1v-15h24v15a1 1 0 0 1 -1 1z" data-original="#000000" class="" style="fill:#000000" data-old_color="#000000"/><path d="m45.707 48.293a1 1 0 0 0 -1.414 0l-3 3a1 1 0 0 0 0 1.414l3 3a1 1 0 0 0 1.414-1.414l-2.293-2.293 2.293-2.293a1 1 0 0 0 0-1.414z" data-original="#000000" class="" style="fill:#000000" data-old_color="#000000"/><path d="m53.707 48.293a1 1 0 0 0 -1.414 1.414l2.293 2.293-2.293 2.293a1 1 0 1 0 1.414 1.414l3-3a1 1 0 0 0 0-1.414z" data-original="#000000" class="" style="fill:#000000" data-old_color="#000000"/><path d="m50.243 47.03a1 1 0 0 0 -1.213.727l-2 8a1 1 0 0 0 .727 1.213.976.976 0 0 0 .243.03 1 1 0 0 0 .969-.757l2-8a1 1 0 0 0 -.726-1.213z" data-original="#000000" class="" style="fill:#000000" data-old_color="#000000"/><path d="m28.707 12.293a1 1 0 0 0 -1.414 0l-3 3a1 1 0 0 0 0 1.414l3 3a1 1 0 0 0 1.414-1.414l-2.293-2.293 2.293-2.293a1 1 0 0 0 0-1.414z" data-original="#000000" class="" style="fill:#000000" data-old_color="#000000"/><path d="m36.707 12.293a1 1 0 0 0 -1.414 1.414l2.293 2.293-2.293 2.293a1 1 0 1 0 1.414 1.414l3-3a1 1 0 0 0 0-1.414z" data-original="#000000" class="" style="fill:#000000" data-old_color="#000000"/><path d="m33.243 11.03a1 1 0 0 0 -1.213.727l-2 8a1 1 0 0 0 .727 1.213.976.976 0 0 0 .243.03 1 1 0 0 0 .969-.757l2-8a1 1 0 0 0 -.726-1.213z" data-original="#000000" class="" style="fill:#000000" data-old_color="#000000"/><path d="m12.707 48.293a1 1 0 0 0 -1.414 0l-3 3a1 1 0 0 0 0 1.414l3 3a1 1 0 0 0 1.414-1.414l-2.293-2.293 2.293-2.293a1 1 0 0 0 0-1.414z" data-original="#000000" class="" style="fill:#000000" data-old_color="#000000"/><path d="m20.707 48.293a1 1 0 0 0 -1.414 1.414l2.293 2.293-2.293 2.293a1 1 0 1 0 1.414 1.414l3-3a1 1 0 0 0 0-1.414z" data-original="#000000" class="" style="fill:#000000" data-old_color="#000000"/><path d="m17.243 47.03a1 1 0 0 0 -1.213.727l-2 8a1 1 0 0 0 .727 1.213.976.976 0 0 0 .243.03 1 1 0 0 0 .969-.757l2-8a1 1 0 0 0 -.726-1.213z" data-original="#000000" class="" style="fill:#000000" data-old_color="#000000"/></g></g> </svg>
